{"accessors":[{"bufferView":3,"componentType":5126,"count":2768,"max":[9.539346694946289,18.56020736694336,9.711458206176758],"min":[-9.539346694946289,-8.919761657714844,-15.7811861038208],"type":"VEC3"},{"bufferView":3,"byteOffset":33216,"componentType":5126,"count":2768,"max":[0.9978635311126709,0.9813945889472961,0.9881296753883362],"min":[-0.9978634715080261,-1,-0.995534360408783],"type":"VEC3"},{"bufferView":2,"componentType":5126,"count":2768,"max":[0.9832591414451599,0.9950604438781738],"min":[0.0030530691146850586,0.0031479597091674805],"type":"VEC2"},{"bufferView":1,"componentType":5125,"count":2898,"type":"SCALAR"},{"bufferView":3,"byteOffset":66432,"componentType":5126,"count":439,"max":[1,1,1.0000001192092896],"min":[-1.000000238418579,-1,-1.0000004768371582],"type":"VEC3"},{"bufferView":3,"byteOffset":71700,"componentType":5126,"count":439,"max":[1,1,1],"min":[-1,-1,-1],"type":"VEC3"},{"bufferView":2,"byteOffset":22144,"componentType":5126,"count":439,"max":[1.0000001192092896,1],"min":[0,0],"type":"VEC2"},{"bufferView":1,"byteOffset":11592,"componentType":5125,"count":2280,"type":"SCALAR"},{"bufferView":5,"componentType":5126,"count":10,"max":[1,1.81094055307085e-8,1,0,0.9692590236663818,1,1.249000902703301e-16,0,0.2460426688194275,0.9692590236663818,1,0,7.498429775238037,8.487472534179688,15.318387031555176,1],"min":[-1.558687397875804e-16,-1.2124557985429123e-16,-1,0,-0.9692590236663818,-1,-3.6663214686427636e-9,0,-0.9932383894920349,-0.9692590236663818,-1,0,-13.423823356628418,-7.344085693359375,-7.255781173706055,1],"type":"MAT4"},{"bufferView":0,"componentType":5123,"count":2768,"type":"VEC4"},{"bufferView":4,"componentType":5126,"count":2768,"max":[1,0.5,0.25,0.055344726890325546],"min":[0.375,0,0,0],"type":"VEC4"},{"bufferView":6,"componentType":5126,"count":30,"max":[1.0083333253860474],"min":[0.0416666679084301],"type":"SCALAR"},{"bufferView":7,"componentType":5126,"count":30,"max":[2.7763214111328125,2.6645352591003757e-15,4.440892098500626e-16],"min":[2.7763214111328125,-2.6645352591003757e-15,-8.881784197001252e-16],"type":"VEC3"},{"bufferView":6,"byteOffset":120,"componentType":5126,"count":2,"max":[1.0083333253860474],"min":[0.0416666679084301],"type":"SCALAR"},{"bufferView":7,"byteOffset":360,"componentType":5126,"count":2,"max":[1,1,1],"min":[1,1,1],"type":"VEC3"},{"bufferView":6,"byteOffset":128,"componentType":5126,"count":30,"max":[1.0083333253860474],"min":[0.0416666679084301],"type":"SCALAR"},{"bufferView":8,"componentType":5126,"count":30,"max":[0.04111456125974655,-0.7059104442596436,0.04111456125974655,0.7059104442596436],"min":[0.04111456125974655,-0.7059104442596436,0.04111456125974655,0.7059104442596436],"type":"VEC4"},{"bufferView":6,"byteOffset":248,"componentType":5126,"count":30,"max":[1.0083333253860474],"min":[0.0416666679084301],"type":"SCALAR"},{"bufferView":7,"byteOffset":384,"componentType":5126,"count":30,"max":[2.887281894683838,2.220446049250313e-15,6.661338147750939e-16],"min":[2.887281894683838,-1.3322676295501878e-15,-6.661338147750939e-16],"type":"VEC3"},{"bufferView":6,"byteOffset":368,"componentType":5126,"count":2,"max":[1.0083333253860474],"min":[0.0416666679084301],"type":"SCALAR"},{"bufferView":7,"byteOffset":744,"componentType":5126,"count":2,"max":[1,1,1],"min":[1,1,1],"type":"VEC3"},{"bufferView":6,"byteOffset":376,"componentType":5126,"count":30,"max":[1.0083333253860474],"min":[0.0416666679084301],"type":"SCALAR"},{"bufferView":8,"byteOffset":480,"componentType":5126,"count":30,"max":[1.4603546151101133e-17,9.440661961904458e-17,0.2495824694633484,0.9999858140945435],"min":[-6.6033841534998e-17,3.6354425794305506e-17,-0.3925365209579468,0.9197364449501038],"type":"VEC4"},{"bufferView":6,"byteOffset":496,"componentType":5126,"count":30,"max":[1.0083333253860474],"min":[0.0416666679084301],"type":"SCALAR"},{"bufferView":7,"byteOffset":768,"componentType":5126,"count":30,"max":[4.2146100997924805,8.881784197001252e-16,9.860761315262648e-32],"min":[4.2146100997924805,-1.7763568394002505e-15,-3.915187452534349e-16],"type":"VEC3"},{"bufferView":6,"byteOffset":616,"componentType":5126,"count":2,"max":[1.0083333253860474],"min":[0.0416666679084301],"type":"SCALAR"},{"bufferView":7,"byteOffset":1128,"componentType":5126,"count":2,"max":[1,1,1],"min":[1,1,1],"type":"VEC3"},{"bufferView":6,"byteOffset":624,"componentType":5126,"count":30,"max":[1.0083333253860474],"min":[0.0416666679084301],"type":"SCALAR"},{"bufferView":8,"byteOffset":960,"componentType":5126,"count":30,"max":[0.12029187381267548,-0.012386607006192207,0.23453712463378906,0.9936636090278625],"min":[0.05338488146662712,-0.10626102238893509,-0.25029265880584717,0.9619960188865662],"type":"VEC4"},{"bufferView":6,"byteOffset":744,"componentType":5126,"count":15,"max":[1.0083333253860474],"min":[0.0416666679084301],"type":"SCALAR"},{"bufferView":7,"byteOffset":1152,"componentType":5126,"count":15,"max":[8.078120231628418,-9.71445146547012e-17,-7.703719777548943e-33],"min":[8.078120231628418,-1.8735013540549517e-15,-8.968515076844172e-16],"type":"VEC3"},{"bufferView":6,"byteOffset":804,"componentType":5126,"count":2,"max":[1.0083333253860474],"min":[0.0416666679084301],"type":"SCALAR"},{"bufferView":7,"byteOffset":1332,"componentType":5126,"count":2,"max":[1,1,1],"min":[1,1,1],"type":"VEC3"},{"bufferView":6,"byteOffset":812,"componentType":5126,"count":30,"max":[1.0083333253860474],"min":[0.0416666679084301],"type":"SCALAR"},{"bufferView":8,"byteOffset":1440,"componentType":5126,"count":30,"max":[1.879388431561716e-17,4.658277545759726e-17,0.3326789140701294,0.9999920725822449],"min":[-2.3178316794277246e-33,4.262329016715498e-17,-0.07606924325227737,0.943040132522583],"type":"VEC4"},{"bufferView":6,"byteOffset":932,"componentType":5126,"count":2,"max":[1.0083333253860474],"min":[0.0416666679084301],"type":"SCALAR"},{"bufferView":7,"byteOffset":1356,"componentType":5126,"count":2,"max":[1.2021067142486572,0.026117533445358276,-0.6156724095344543],"min":[1.2021067142486572,0.026117533445358276,-0.6156724095344543],"type":"VEC3"},{"bufferView":6,"byteOffset":940,"componentType":5126,"count":2,"max":[1.0083333253860474],"min":[0.0416666679084301],"type":"SCALAR"},{"bufferView":7,"byteOffset":1380,"componentType":5126,"count":2,"max":[1,1,1],"min":[1,1,1],"type":"VEC3"},{"bufferView":6,"byteOffset":948,"componentType":5126,"count":19,"max":[1.0083333253860474],"min":[0.0416666679084301],"type":"SCALAR"},{"bufferView":8,"byteOffset":1920,"componentType":5126,"count":19,"max":[-0.43415358662605286,0.7878073453903198,0.43415358662605286,0.5581313967704773],"min":[-0.6128115653991699,0.5581313967704773,0.037955667823553085,0.04879436641931534],"type":"VEC4"},{"bufferView":6,"byteOffset":1024,"componentType":5126,"count":2,"max":[1.0083333253860474],"min":[0.0416666679084301],"type":"SCALAR"},{"bufferView":7,"byteOffset":1404,"componentType":5126,"count":2,"max":[-7.100154399871826,-1.5149023532867432,6.882761001586914],"min":[-7.100154399871826,-1.5149023532867432,6.882761001586914],"type":"VEC3"},{"bufferView":6,"byteOffset":1032,"componentType":5126,"count":2,"max":[1.0083333253860474],"min":[0.0416666679084301],"type":"SCALAR"},{"bufferView":7,"byteOffset":1428,"componentType":5126,"count":2,"max":[1,1,1],"min":[1,1,1],"type":"VEC3"},{"bufferView":6,"byteOffset":1040,"componentType":5126,"count":23,"max":[1.0083333253860474],"min":[0.0416666679084301],"type":"SCALAR"},{"bufferView":8,"byteOffset":2224,"componentType":5126,"count":23,"max":[0.8084859848022461,-0.43285658955574036,0.547764003276825,0.39872992038726807],"min":[0.5946462750434875,-0.5885154008865356,1.2338161165880937e-16,1.65549333757962e-16],"type":"VEC4"},{"bufferView":6,"byteOffset":1132,"componentType":5126,"count":2,"max":[1.0083333253860474],"min":[0.0416666679084301],"type":"SCALAR"},{"bufferView":7,"byteOffset":1452,"componentType":5126,"count":2,"max":[-1.2021088600158691,-0.026112666353583336,0.6156700253486633],"min":[-1.2021088600158691,-0.026112666353583336,0.6156700253486633],"type":"VEC3"},{"bufferView":6,"byteOffset":1140,"componentType":5126,"count":2,"max":[1.0083333253860474],"min":[0.0416666679084301],"type":"SCALAR"},{"bufferView":7,"byteOffset":1476,"componentType":5126,"count":2,"max":[1,1,1],"min":[1,1,1],"type":"VEC3"},{"bufferView":6,"byteOffset":1148,"componentType":5126,"count":22,"max":[1.0083333253860474],"min":[0.0416666679084301],"type":"SCALAR"},{"bufferView":8,"byteOffset":2592,"componentType":5126,"count":22,"max":[-0.43415358662605286,0.7878073453903198,0.43415358662605286,0.5581313967704773],"min":[-0.6128115653991699,0.5581313967704773,0.03795566037297249,0.048794373869895935],"type":"VEC4"},{"bufferView":6,"byteOffset":1236,"componentType":5126,"count":2,"max":[1.0083333253860474],"min":[0.0416666679084301],"type":"SCALAR"},{"bufferView":7,"byteOffset":1500,"componentType":5126,"count":2,"max":[-7.100158214569092,-1.5149012804031372,-6.882760047912598],"min":[-7.100158214569092,-1.5149012804031372,-6.882760047912598],"type":"VEC3"},{"bufferView":6,"byteOffset":1244,"componentType":5126,"count":2,"max":[1.0083333253860474],"min":[0.0416666679084301],"type":"SCALAR"},{"bufferView":7,"byteOffset":1524,"componentType":5126,"count":2,"max":[1,1,1],"min":[1,1,1],"type":"VEC3"},{"bufferView":6,"byteOffset":1252,"componentType":5126,"count":23,"max":[1.0083333253860474],"min":[0.0416666679084301],"type":"SCALAR"},{"bufferView":8,"byteOffset":2944,"componentType":5126,"count":23,"max":[0.5885154008865356,0.8084859848022461,0.3242887556552887,0.5477638840675354],"min":[-0.44699302315711975,-0.6140665411949158,-0.3987298309803009,-0.4454987943172455],"type":"VEC4"}],"animations":[{"channels":[{"sampler":0,"target":{"node":12,"path":"translation"}},{"sampler":1,"target":{"node":12,"path":"scale"}},{"sampler":2,"target":{"node":12,"path":"rotation"}},{"sampler":3,"target":{"node":11,"path":"translation"}},{"sampler":4,"target":{"node":11,"path":"scale"}},{"sampler":5,"target":{"node":11,"path":"rotation"}},{"sampler":6,"target":{"node":10,"path":"translation"}},{"sampler":7,"target":{"node":10,"path":"scale"}},{"sampler":8,"target":{"node":10,"path":"rotation"}},{"sampler":9,"target":{"node":9,"path":"translation"}},{"sampler":10,"target":{"node":9,"path":"scale"}},{"sampler":11,"target":{"node":9,"path":"rotation"}},{"sampler":12,"target":{"node":14,"path":"translation"}},{"sampler":13,"target":{"node":14,"path":"scale"}},{"sampler":14,"target":{"node":14,"path":"rotation"}},{"sampler":15,"target":{"node":13,"path":"translation"}},{"sampler":16,"target":{"node":13,"path":"scale"}},{"sampler":17,"target":{"node":13,"path":"rotation"}},{"sampler":18,"target":{"node":16,"path":"translation"}},{"sampler":19,"target":{"node":16,"path":"scale"}},{"sampler":20,"target":{"node":16,"path":"rotation"}},{"sampler":21,"target":{"node":15,"path":"translation"}},{"sampler":22,"target":{"node":15,"path":"scale"}},{"sampler":23,"target":{"node":15,"path":"rotation"}}],"name":"Take 001","samplers":[{"input":11,"interpolation":"LINEAR","output":12},{"input":13,"interpolation":"LINEAR","output":14},{"input":15,"interpolation":"LINEAR","output":16},{"input":17,"interpolation":"LINEAR","output":18},{"input":19,"interpolation":"LINEAR","output":20},{"input":21,"interpolation":"LINEAR","output":22},{"input":23,"interpolation":"LINEAR","output":24},{"input":25,"interpolation":"LINEAR","output":26},{"input":27,"interpolation":"LINEAR","output":28},{"input":29,"interpolation":"LINEAR","output":30},{"input":31,"interpolation":"LINEAR","output":32},{"input":33,"interpolation":"LINEAR","output":34},{"input":35,"interpolation":"LINEAR","output":36},{"input":37,"interpolation":"LINEAR","output":38},{"input":39,"interpolation":"LINEAR","output":40},{"input":41,"interpolation":"LINEAR","output":42},{"input":43,"interpolation":"LINEAR","output":44},{"input":45,"interpolation":"LINEAR","output":46},{"input":47,"interpolation":"LINEAR","output":48},{"input":49,"interpolation":"LINEAR","output":50},{"input":51,"interpolation":"LINEAR","output":52},{"input":53,"interpolation":"LINEAR","output":54},{"input":55,"interpolation":"LINEAR","output":56},{"input":57,"interpolation":"LINEAR","output":58}]}],"asset":{"extras":{"author":"anhto (https://sketchfab.com/anhto)","license":"CC-BY-4.0 (http://creativecommons.org/licenses/by/4.0/)","source":"https://sketchfab.com/3d-models/gru-gru-649625f4fa7b4928a464d3e0ce737cb2","title":"Gru Gru"},"generator":"Sketchfab-12.65.0","version":"2.0"},"bufferViews":[{"buffer":0,"byteLength":22144,"byteStride":8,"name":"shortBufferViews","target":34962},{"buffer":0,"byteLength":20712,"byteOffset":22144,"name":"floatBufferViews","target":34963},{"buffer":0,"byteLength":25656,"byteOffset":42856,"byteStride":8,"name":"floatBufferViews","target":34962},{"buffer":0,"byteLength":76968,"byteOffset":68512,"byteStride":12,"name":"floatBufferViews","target":34962},{"buffer":0,"byteLength":44288,"byteOffset":145480,"byteStride":16,"name":"floatBufferViews","target":34962},{"buffer":0,"byteLength":640,"byteOffset":189768,"name":"floatBufferViews"},{"buffer":0,"byteLength":1344,"byteOffset":190408,"name":"floatBufferViews"},{"buffer":0,"byteLength":1548,"byteOffset":191752,"byteStride":12,"name":"floatBufferViews"},{"buffer":0,"byteLength":3312,"byteOffset":193300,"byteStride":16,"name":"floatBufferViews"}],"buffers":[{"byteLength":196612,"uri":"data:application/octet-stream;base64,"}],"images":[{"uri":"data:application/octet-stream;base64,"},{"uri":"data:application/octet-stream;base64,"}],"materials":[{"doubleSided":true,"name":"lambert3","pbrMetallicRoughness":{"baseColorTexture":{"index":0},"metallicFactor":0,"roughnessFactor":0.6}},{"name":"lambert4","pbrMetallicRoughness":{"baseColorTexture":{"index":1},"metallicFactor":0,"roughnessFactor":0.6}}],"meshes":[{"name":"Body_lambert3_0","primitives":[{"attributes":{"JOINTS_0":9,"NORMAL":1,"POSITION":0,"TEXCOORD_0":2,"WEIGHTS_0":10},"indices":3,"material":0,"mode":4}]},{"name":"pSphere1_lambert4_0","primitives":[{"attributes":{"NORMAL":5,"POSITION":4,"TEXCOORD_0":6},"indices":7,"material":1,"mode":4}]}],"nodes":[{"children":[1],"matrix":[1,0,0,0,0,2.220446049250313e-16,-1,0,0,1,2.220446049250313e-16,0,0,0,0,1],"name":"Sketchfab_model"},{"children":[2],"matrix":[1,0,0,0,0,0,1,0,0,-1,0,0,0,0,0,1],"name":"grugru.fbx"},{"children":[3],"name":"Object_2"},{"children":[4],"name":"RootNode"},{"children":[5,7,6,17,18],"name":"Object_4"},{"children":[8],"name":"_rootJoint"},{"matrix":[1,4.930380657631324e-32,0,0,-4.930380657631324e-32,1,-3.8873424399686426e-32,0,-1.916607797561075e-63,3.8873424399686426e-32,1,0,-3.0814879110195774e-33,-6.938893903907228e-18,0,1],"name":"Object_6"},{"mesh":0,"name":"Object_7","skin":0},{"children":[9,13,15],"name":"joint1_00","rotation":[-0.195735365152359,0.6794760227203369,-0.195735365152359,0.6794760227203369],"translation":[0,0.035860780626535416,0.11672387272119522]},{"children":[10],"name":"T_01","rotation":[1.900173660557826e-17,4.253103636779817e-17,0.3372786343097687,0.9414048790931702],"translation":[8.078120231628418,3.469446951953614e-16,-3.235562306570556e-32]},{"children":[11],"name":"T1_02","rotation":[0.05647846683859825,-0.09080267697572708,-0.2630203366279602,0.958845853805542],"translation":[4.2146100997924805,0,9.860761315262648e-32]},{"children":[12],"name":"T2_03","rotation":[-2.5292780999372732e-17,4.5482019746693344e-17,-0.4075567424297333,0.913179874420166],"translation":[2.887281894683838,4.440892098500626e-16,2.220446049250313e-16]},{"name":"T3_04","rotation":[0.04111456498503685,-0.7059105038642883,0.04111456498503685,0.7059105038642883],"translation":[2.7763214111328125,-1.7763568394002505e-15,0]},{"children":[14],"name":"L_05","rotation":[0.8084861040115356,-0.5885154604911804,1.2338162489369917e-16,1.655493469928518e-16],"translation":[-7.100154399871826,-1.5149023532867432,6.882761001586914]},{"name":"L1_06","rotation":[-0.43415358662605286,0.5581313967704773,0.43415358662605286,0.5581313967704773],"translation":[1.2021067142486572,0.026117533445358276,-0.6156724095344543]},{"children":[16],"name":"R_07","rotation":[0.5885154604911804,0.8084861040115356,6.0236908794308874e-9,4.384781870925281e-9],"translation":[-7.100158214569092,-1.5149012804031372,-6.882760047912598]},{"name":"R1_08","rotation":[-0.43415358662605286,0.5581313967704773,0.43415358662605286,0.5581313967704773],"translation":[-1.2021088600158691,-0.026112666353583336,0.6156700253486633]},{"name":"Body"},{"children":[19],"name":"pSphere1","scale":[115.45179748535156,115.45179748535156,115.45179748535156]},{"mesh":1,"name":"pSphere1_lambert4_0"}],"samplers":[{"magFilter":9729,"minFilter":9987,"wrapS":10497,"wrapT":10497}],"scene":0,"scenes":[{"name":"Sketchfab_Scene","nodes":[0]}],"skins":[{"inverseBindMatrices":8,"joints":[5,8,9,10,11,12,13,14,15,16],"skeleton":5}],"textures":[{"sampler":0,"source":0},{"sampler":0,"source":1}]}