<svg width="12" height="12" viewBox="0 0 12 12" fill="none" xmlns="http://www.w3.org/2000/svg">
<path d="M1.33854 6.0013H3.08854C3.39796 6.0013 3.69471 6.12422 3.9135 6.34301C4.13229 6.5618 4.25521 6.85855 4.25521 7.16797V10.0846C4.25521 10.3941 4.13229 10.6908 3.9135 10.9096C3.69471 11.1284 3.39796 11.2513 3.08854 11.2513H1.33854C1.02912 11.2513 0.732376 11.1284 0.513584 10.9096C0.294791 10.6908 0.171875 10.3941 0.171875 10.0846V6.0013C0.171875 2.77955 2.78346 0.167969 6.00521 0.167969C9.22696 0.167969 11.8385 2.77955 11.8385 6.0013V10.0846C11.8385 10.3941 11.7156 10.6908 11.4968 10.9096C11.278 11.1284 10.9813 11.2513 10.6719 11.2513H8.92188C8.61246 11.2513 8.31571 11.1284 8.09692 10.9096C7.87813 10.6908 7.75521 10.3941 7.75521 10.0846V7.16797C7.75521 6.85855 7.87813 6.5618 8.09692 6.34301C8.31571 6.12422 8.61246 6.0013 8.92188 6.0013H10.6719C10.6719 4.76363 10.1802 3.57664 9.30504 2.70147C8.42987 1.8263 7.24289 1.33464 6.00521 1.33464C4.76753 1.33464 3.58055 1.8263 2.70538 2.70147C1.83021 3.57664 1.33854 4.76363 1.33854 6.0013Z" fill="#252121"/>
</svg>