<svg width="94" height="39" viewBox="0 0 94 39" fill="none" xmlns="http://www.w3.org/2000/svg">
<path d="M7.01017 9.01019C3.11337 12.6641 0.00893492 17.3185 1.295 22.128C2.62373 27.0939 8.32467 30.51 13.9972 32.6922C18.2841 34.3419 22.9143 35.459 27.5791 36.3107C32.8676 37.276 38.2231 37.876 43.664 37.9804C49.0643 38.0847 54.4828 37.7702 59.8079 37.0949C64.8221 36.4581 69.7957 35.4805 74.4889 33.9904C78.5178 32.7106 82.374 30.9765 85.6938 28.8219C88.2862 27.14 90.5515 25.1051 91.8843 22.7096C92.9794 20.7437 93.2903 18.5754 92.7194 16.4837C92.1261 14.3046 90.582 12.3372 88.6458 10.686C86.2626 8.65109 83.2374 7.07199 80.068 5.81668C76.1021 4.24525 71.803 3.17717 67.445 2.43135C62.1525 1.52594 56.7522 1.16991 51.3357 1.04561C46.2138 0.927443 41.0716 1.02719 35.9801 1.48297C28.3531 2.16433 20.395 3.65443 14.1719 7.21777C11.7643 8.59585 9.69607 10.2962 8.15807 12.262C6.58148 14.2754 5.62658 16.5343 5.1918 18.8424C5.15523 19.0357 5.54734 19.1186 5.58391 18.9237C6.04308 16.4929 7.08127 14.145 8.80009 12.0533C10.5067 9.97699 12.8513 8.24135 15.5108 6.86482C22.2052 3.40122 30.5921 2.1229 38.5381 1.59039C43.8083 1.23743 49.1151 1.24357 54.3934 1.44767C59.7246 1.65331 65.0273 2.19809 70.1817 3.26464C74.3549 4.12709 78.4284 5.34096 82.1261 7.0505C85.068 8.41016 87.7966 10.1243 89.7897 12.2666C91.4475 14.0467 92.5142 16.1353 92.5995 18.3237C92.6869 20.5888 91.6649 22.774 90.0599 24.6647C87.951 27.1476 84.8872 29.1165 81.6588 30.7325C77.7092 32.709 73.402 34.1454 68.8774 35.1889C63.7575 36.3691 58.4467 37.078 53.1216 37.4402C47.7782 37.8039 42.3739 37.7978 37.0407 37.3282C31.6343 36.8525 26.2199 35.8995 21.0655 34.5828C17.0203 33.55 13.0585 32.2072 9.5701 30.3304C6.93093 28.9094 4.57213 27.1246 3.05445 24.9424C1.72978 23.0349 1.2056 20.8834 1.46973 18.7426C1.90654 15.1992 4.39537 11.9505 7.29663 9.22964C7.45917 9.07771 7.17473 8.85826 7.01017 9.01326V9.01019Z" fill="#292939" stroke="#252121" stroke-width="0.5"/>
</svg>