<svg width="14" height="14" viewBox="0 0 14 14" fill="none" xmlns="http://www.w3.org/2000/svg">
<path d="M4.44536 1.9974C4.58337 1.60735 4.83891 1.26968 5.1768 1.03089C5.51468 0.792102 5.91829 0.663943 6.33203 0.664063H7.66536C8.53603 0.664063 9.2767 1.22073 9.55203 1.9974H12.9987C13.1755 1.9974 13.3451 2.06763 13.4701 2.19266C13.5951 2.31768 13.6654 2.48725 13.6654 2.66406V13.3307C13.6654 13.5075 13.5951 13.6771 13.4701 13.8021C13.3451 13.9272 13.1755 13.9974 12.9987 13.9974H0.998698C0.821887 13.9974 0.652318 13.9272 0.527293 13.8021C0.402269 13.6771 0.332031 13.5075 0.332031 13.3307V2.66406C0.332031 2.48725 0.402269 2.31768 0.527293 2.19266C0.652318 2.06763 0.821887 1.9974 0.998698 1.9974H4.44536ZM5.66536 5.9974V9.9974L8.9987 7.9974L5.66536 5.9974ZM6.33203 1.9974C6.15522 1.9974 5.98565 2.06763 5.86063 2.19266C5.7356 2.31768 5.66536 2.48725 5.66536 2.66406C5.66536 2.84087 5.7356 3.01044 5.86063 3.13547C5.98565 3.26049 6.15522 3.33073 6.33203 3.33073H7.66536C7.84218 3.33073 8.01174 3.26049 8.13677 3.13547C8.26179 3.01044 8.33203 2.84087 8.33203 2.66406C8.33203 2.48725 8.26179 2.31768 8.13677 2.19266C8.01174 2.06763 7.84218 1.9974 7.66536 1.9974H6.33203Z" fill="#252121"/>
</svg>