<svg width="14" height="14" viewBox="0 0 14 14" fill="none" xmlns="http://www.w3.org/2000/svg">
<path d="M3.66927 3.0026V1.0026C3.66927 0.825793 3.73951 0.656224 3.86453 0.5312C3.98956 0.406175 4.15913 0.335938 4.33594 0.335938H9.66927C9.84608 0.335938 10.0157 0.406175 10.1407 0.5312C10.2657 0.656224 10.3359 0.825793 10.3359 1.0026V3.0026H13.6693V4.33594H12.3359V13.0026C12.3359 13.1794 12.2657 13.349 12.1407 13.474C12.0157 13.599 11.8461 13.6693 11.6693 13.6693H2.33594C2.15913 13.6693 1.98956 13.599 1.86453 13.474C1.73951 13.349 1.66927 13.1794 1.66927 13.0026V4.33594H0.335938V3.0026H3.66927ZM5.0026 1.66927V3.0026H9.0026V1.66927H5.0026Z" fill="white"/>
</svg>