<svg width="24" height="24" viewBox="0 0 24 24" fill="none" xmlns="http://www.w3.org/2000/svg">
<circle cx="12" cy="12" r="11.5" fill="#252121" stroke="#252121"/>
<path fill-rule="evenodd" clip-rule="evenodd" d="M12.3536 15.3536L15.5355 12.1716C15.7308 11.9763 15.7308 11.6597 15.5355 11.4645C15.3403 11.2692 15.0237 11.2692 14.8284 11.4645L12.5 13.7929L12.5 6C12.5 5.72386 12.2761 5.5 12 5.5C11.7239 5.5 11.5 5.72386 11.5 6L11.5 13.7929L9.17157 11.4645C8.97631 11.2692 8.65973 11.2692 8.46447 11.4645C8.2692 11.6597 8.2692 11.9763 8.46447 12.1716L11.6464 15.3536C11.8417 15.5488 12.1583 15.5488 12.3536 15.3536ZM7.5 17C7.22386 17 7 17.2239 7 17.5C7 17.7761 7.22386 18 7.5 18H16.5C16.7761 18 17 17.7761 17 17.5C17 17.2239 16.7761 17 16.5 17H7.5Z" fill="white"/>
</svg>