<svg width="10" height="12" viewBox="0 0 10 12" fill="none" xmlns="http://www.w3.org/2000/svg">
<path d="M0.911458 0.167969H9.07812C9.23283 0.167969 9.38121 0.229427 9.4906 0.338823C9.6 0.448219 9.66146 0.596592 9.66146 0.751302V11.2513C9.66146 11.406 9.6 11.5544 9.4906 11.6638C9.38121 11.7732 9.23283 11.8346 9.07812 11.8346H0.911458C0.756749 11.8346 0.608376 11.7732 0.498979 11.6638C0.389583 11.5544 0.328125 11.406 0.328125 11.2513V0.751302C0.328125 0.596592 0.389583 0.448219 0.498979 0.338823C0.608376 0.229427 0.756749 0.167969 0.911458 0.167969ZM4.99479 8.91797C4.84008 8.91797 4.69171 8.97943 4.58231 9.08882C4.47292 9.19822 4.41146 9.34659 4.41146 9.5013C4.41146 9.65601 4.47292 9.80439 4.58231 9.91378C4.69171 10.0232 4.84008 10.0846 4.99479 10.0846C5.1495 10.0846 5.29787 10.0232 5.40727 9.91378C5.51667 9.80439 5.57812 9.65601 5.57812 9.5013C5.57812 9.34659 5.51667 9.19822 5.40727 9.08882C5.29787 8.97943 5.1495 8.91797 4.99479 8.91797Z" fill="black"/>
</svg>