<svg width="14" height="14" viewBox="0 0 14 14" fill="none" xmlns="http://www.w3.org/2000/svg">
<path d="M11.3333 0.335938C11.7013 0.335938 12 0.634604 12 1.0026V3.50727L6.00067 9.50727L5.99667 12.3326L8.82733 12.3366L12 9.16394V13.0026C12 13.3706 11.7013 13.6693 11.3333 13.6693H0.666667C0.298667 13.6693 0 13.3706 0 13.0026V1.0026C0 0.634604 0.298667 0.335938 0.666667 0.335938H11.3333ZM12.5187 4.8746L13.4613 5.81727L8.276 11.0026L7.332 11.0013L7.33333 10.0599L12.5187 4.8746ZM6 7.0026H2.66667V8.33594H6V7.0026ZM8 4.33594H2.66667V5.66927H8V4.33594Z" fill="#252121"/>
</svg>