<svg width="22" height="29" viewBox="0 0 22 29" fill="none" xmlns="http://www.w3.org/2000/svg">
<path d="M5.59088 22.0039C5.19488 20.3065 3.40821 18.9185 2.67488 18.0039C1.41913 16.4349 0.63214 14.5432 0.404562 12.5465C0.176984 10.5498 0.518077 8.52948 1.38855 6.7182C2.25902 4.90691 3.62346 3.37837 5.32468 2.30865C7.02591 1.23893 8.99472 0.671553 11.0043 0.671875C13.0139 0.672197 14.9825 1.24021 16.6834 2.31047C18.3843 3.38073 19.7483 4.90971 20.6182 6.72128C21.488 8.53284 21.8285 10.5533 21.6003 12.5499C21.3721 14.5465 20.5845 16.438 19.3282 18.0065C18.5949 18.9199 16.8109 20.3079 16.4149 22.0039H5.58954H5.59088ZM16.3362 24.6705V26.0039C16.3362 26.7111 16.0553 27.3894 15.5552 27.8895C15.0551 28.3896 14.3768 28.6705 13.6695 28.6705H8.33621C7.62897 28.6705 6.95069 28.3896 6.45059 27.8895C5.9505 27.3894 5.66954 26.7111 5.66954 26.0039V24.6705H16.3362ZM12.3362 11.3439V6.00387L6.33621 14.0105H9.66954V19.3439L15.6695 11.3439H12.3362Z" fill="#252121"/>
</svg>