<svg width="28" height="28" viewBox="0 0 28 28" fill="none" xmlns="http://www.w3.org/2000/svg">
<circle cx="14" cy="14" r="14" fill="#C5D6D8" stroke="#C5D6D8"/>
<g transform="translate(8.2,7.5),scale(0.84)" clip-path="url(#clip0_327_1072)">
<path d="M3.25508 4.18164H0.444556C0.319821 4.18164 0.21875 4.27553 0.21875 4.39132V12.7754C0.21875 12.8912 0.319821 12.9851 0.444556 12.9851H3.25508C3.37981 12.9851 3.48089 12.8912 3.48089 12.7754V4.39132C3.48089 4.27553 3.37981 4.18164 3.25508 4.18164Z" fill="#252121"/>
<path d="M1.85459 0.0136719C0.831961 0.0136719 0 0.785369 0 1.73391C0 2.68287 0.831961 3.45486 1.85459 3.45486C2.87641 3.45486 3.7077 2.68282 3.7077 1.73391C3.70774 0.785369 2.87641 0.0136719 1.85459 0.0136719Z" fill="#252121"/>
<path d="M10.4094 3.97266C9.28062 3.97266 8.44618 4.42325 7.94006 4.93524V4.39071C7.94006 4.27493 7.83898 4.18103 7.71425 4.18103H5.02268C4.89795 4.18103 4.79688 4.27493 4.79688 4.39071V12.7748C4.79688 12.8906 4.89795 12.9845 5.02268 12.9845H7.82706C7.9518 12.9845 8.05287 12.8906 8.05287 12.7748V8.62662C8.05287 7.22878 8.46176 6.68421 9.51113 6.68421C10.654 6.68421 10.7448 7.55722 10.7448 8.69853V12.7748C10.7448 12.8907 10.8459 12.9845 10.9706 12.9845H13.776C13.9008 12.9845 14.0018 12.8907 14.0018 12.7748V8.17602C14.0018 6.09749 13.575 3.97266 10.4094 3.97266Z" fill="#252121"/>
</g>
<defs>
<clipPath id="clip0_327_1072">
<rect width="14" height="13" fill="#252121"/>
</clipPath>
</defs>
</svg>