<svg width="12" height="12" viewBox="0 0 12 12" fill="none" xmlns="http://www.w3.org/2000/svg">
<path d="M3.33333 0.665365H12V1.9987H3.33333V0.665365ZM1 2.33203C0.734784 2.33203 0.48043 2.22667 0.292893 2.03914C0.105357 1.8516 0 1.59725 0 1.33203C0 1.06681 0.105357 0.812461 0.292893 0.624925C0.48043 0.437388 0.734784 0.332031 1 0.332031C1.26522 0.332031 1.51957 0.437388 1.70711 0.624925C1.89464 0.812461 2 1.06681 2 1.33203C2 1.59725 1.89464 1.8516 1.70711 2.03914C1.51957 2.22667 1.26522 2.33203 1 2.33203ZM1 6.9987C0.734784 6.9987 0.48043 6.89334 0.292893 6.7058C0.105357 6.51827 0 6.26391 0 5.9987C0 5.73348 0.105357 5.47913 0.292893 5.29159C0.48043 5.10405 0.734784 4.9987 1 4.9987C1.26522 4.9987 1.51957 5.10405 1.70711 5.29159C1.89464 5.47913 2 5.73348 2 5.9987C2 6.26391 1.89464 6.51827 1.70711 6.7058C1.51957 6.89334 1.26522 6.9987 1 6.9987ZM1 11.5987C0.734784 11.5987 0.48043 11.4933 0.292893 11.3058C0.105357 11.1183 0 10.8639 0 10.5987C0 10.3335 0.105357 10.0791 0.292893 9.89159C0.48043 9.70405 0.734784 9.5987 1 9.5987C1.26522 9.5987 1.51957 9.70405 1.70711 9.89159C1.89464 10.0791 2 10.3335 2 10.5987C2 10.8639 1.89464 11.1183 1.70711 11.3058C1.51957 11.4933 1.26522 11.5987 1 11.5987ZM3.33333 5.33203H12V6.66536H3.33333V5.33203ZM3.33333 9.9987H12V11.332H3.33333V9.9987Z" fill="#252121"/>
</svg>