<svg width="6" height="6" viewBox="0 0 6 6" fill="none" xmlns="http://www.w3.org/2000/svg">
<path d="M4.5 0.5C4.5 0.367392 4.55268 0.240215 4.64645 0.146447C4.74021 0.0526785 4.86739 0 5 0C5.13261 0 5.25979 0.0526785 5.35355 0.146447C5.44732 0.240215 5.5 0.367392 5.5 0.5V5.5C5.5 5.63261 5.44732 5.75979 5.35355 5.85355C5.25979 5.94732 5.13261 6 5 6C4.86739 6 4.74021 5.94732 4.64645 5.85355C4.55268 5.75979 4.5 5.63261 4.5 5.5V0.5ZM0.5 0.5C0.5 0.367392 0.552679 0.240215 0.646447 0.146447C0.740215 0.0526785 0.867392 0 1 0C1.13261 0 1.25978 0.0526785 1.35355 0.146447C1.44732 0.240215 1.5 0.367392 1.5 0.5V5.5C1.5 5.63261 1.44732 5.75979 1.35355 5.85355C1.25978 5.94732 1.13261 6 1 6C0.867392 6 0.740215 5.94732 0.646447 5.85355C0.552679 5.75979 0.5 5.63261 0.5 5.5V0.5Z" fill="white"/>
</svg>