<svg width="28" height="28" viewBox="0 0 28 28" fill="none" xmlns="http://www.w3.org/2000/svg">
<circle cx="14" cy="14" r="14" fill="#C5D6D8" stroke="#C5D6D8"/>
<path transform="translate(8,8)" d="M6.79825 0.22242C5.40249 0.0304183 3.98439 0.349908 2.80581 1.1219C1.62723 1.89388 0.767773 3.06623 0.386129 4.42246C0.00448522 5.77869 0.126434 7.2272 0.729458 8.50054C1.33248 9.77387 2.37585 10.786 3.66691 11.3501C3.632 10.902 3.66404 10.4512 3.762 10.0125C3.86991 9.52309 4.518 6.82575 4.518 6.82575C4.38894 6.53648 4.32445 6.22256 4.329 5.90584C4.329 5.03959 4.82891 4.39325 5.45075 4.39325C5.56246 4.39163 5.67321 4.41407 5.77547 4.45907C5.87773 4.50407 5.96911 4.57056 6.04338 4.65402C6.11766 4.73748 6.17309 4.83595 6.20591 4.94275C6.23872 5.04954 6.24816 5.16215 6.23358 5.27292C6.23358 5.79792 5.89641 6.59242 5.72025 7.33792C5.68543 7.47464 5.68322 7.61763 5.7138 7.75536C5.74437 7.8931 5.80688 8.02172 5.89627 8.13087C5.98567 8.24002 6.09946 8.32664 6.22846 8.38375C6.35747 8.44086 6.49809 8.46687 6.639 8.45967C7.74616 8.45967 8.48816 7.04159 8.48816 5.36742C8.48816 4.08409 7.63825 3.12275 6.07141 3.12275C5.69655 3.10819 5.32263 3.16996 4.97237 3.30432C4.62211 3.43868 4.30281 3.64282 4.03386 3.90435C3.76491 4.16589 3.55191 4.47935 3.40781 4.82572C3.26371 5.17209 3.1915 5.54413 3.19558 5.91925C3.17888 6.33536 3.31312 6.74348 3.57358 7.06842C3.62225 7.10475 3.65778 7.15592 3.67483 7.21421C3.69188 7.2725 3.68951 7.33476 3.66808 7.39159C3.64125 7.49892 3.57358 7.755 3.54675 7.84892C3.54116 7.88077 3.52818 7.91086 3.50884 7.93678C3.4895 7.96269 3.46435 7.9837 3.43541 7.99812C3.40646 8.01253 3.37454 8.01995 3.3422 8.01977C3.30987 8.01959 3.27803 8.01182 3.24925 7.99709C2.44191 7.67392 2.06158 6.7855 2.06158 5.77109C2.06158 4.11034 3.45225 2.12234 6.23475 2.12234C8.44908 2.12234 9.92141 3.74225 9.92141 5.47475C9.92141 7.755 8.65149 9.46942 6.77491 9.46942C6.49444 9.47838 6.21623 9.41649 5.96602 9.28944C5.71581 9.1624 5.50167 8.97432 5.34341 8.74259C5.34341 8.74259 5.00625 10.0936 4.93975 10.3491C4.804 10.7905 4.60369 11.2094 4.34533 11.5922C4.88375 11.7555 5.44316 11.8372 6.0055 11.8348C6.77175 11.8355 7.5306 11.6849 8.23859 11.3918C8.94659 11.0988 9.58982 10.6689 10.1314 10.1269C10.6731 9.58489 11.1025 8.94136 11.3951 8.23316C11.6876 7.52496 11.8376 6.76601 11.8365 5.99975C11.8358 4.591 11.3254 3.23008 10.3995 2.16829C9.47369 1.1065 8.19494 0.415541 6.79941 0.223003L6.79825 0.22242Z" fill="#252121"/>
</svg>