<svg width="16" height="16" viewBox="0 0 16 16" fill="none" xmlns="http://www.w3.org/2000/svg">
<path d="M12.918 8.27734L5.85198 12.988C5.80179 13.0214 5.74347 13.0406 5.68325 13.0435C5.62302 13.0463 5.56314 13.0328 5.50998 13.0044C5.45683 12.9759 5.41239 12.9336 5.38139 12.8818C5.3504 12.8301 5.33402 12.771 5.33398 12.7107V3.28934C5.33402 3.22904 5.3504 3.16989 5.38139 3.11817C5.41239 3.06645 5.45683 3.0241 5.50998 2.99564C5.56314 2.96719 5.62302 2.95368 5.68325 2.95656C5.74347 2.95944 5.80179 2.9786 5.85198 3.012L12.918 7.72267C12.9636 7.75311 13.0011 7.79435 13.027 7.84273C13.0528 7.89111 13.0664 7.94513 13.0664 8C13.0664 8.05488 13.0528 8.1089 13.027 8.15728C13.0011 8.20566 12.9636 8.2469 12.918 8.27734V8.27734Z" fill="#ffffff"/>
</svg>