<svg width="6" height="8" viewBox="0 0 6 8" fill="none" xmlns="http://www.w3.org/2000/svg">
<path d="M4.95665 4.16926L0.71705 6.99566C0.686932 7.0157 0.651942 7.0272 0.615807 7.02893C0.579671 7.03066 0.543743 7.02255 0.51185 7.00548C0.479956 6.9884 0.453291 6.96299 0.434695 6.93196C0.416099 6.90093 0.406269 6.86544 0.40625 6.82926V1.17646C0.406269 1.14028 0.416099 1.10479 0.434695 1.07376C0.453291 1.04273 0.479956 1.01732 0.51185 1.00024C0.543743 0.983167 0.579671 0.975062 0.615807 0.976791C0.651942 0.97852 0.686932 0.990017 0.71705 1.01006L4.95665 3.83646C4.98404 3.85472 5.0065 3.87947 5.02203 3.9085C5.03757 3.93752 5.0457 3.96994 5.0457 4.00286C5.0457 4.03578 5.03757 4.0682 5.02203 4.09722C5.0065 4.12625 4.98404 4.151 4.95665 4.16926Z" fill="white"/>
</svg>