<svg width="12" height="12" viewBox="0 0 12 12" fill="none" xmlns="http://www.w3.org/2000/svg">
<path fill-rule="evenodd" clip-rule="evenodd" d="M6.5 0.921875C6.5 0.645733 6.27614 0.421875 6 0.421875C5.72386 0.421875 5.5 0.645733 5.5 0.921875V5.5H0.921875C0.645733 5.5 0.421875 5.72386 0.421875 6C0.421875 6.27614 0.645733 6.5 0.921875 6.5H5.5V11.0757C5.5 11.3519 5.72386 11.5757 6 11.5757C6.27614 11.5757 6.5 11.3519 6.5 11.0757V6.5H11.0757C11.3519 6.5 11.5757 6.27614 11.5757 6C11.5757 5.72386 11.3519 5.5 11.0757 5.5H6.5V0.921875Z" fill="white"/>
</svg>