<svg width="12" height="12" viewBox="0 0 12 12" fill="none" xmlns="http://www.w3.org/2000/svg">
<path d="M11.25 9.5013H2.5C2.34529 9.5013 2.19692 9.56276 2.08752 9.67215C1.97812 9.78155 1.91667 9.92992 1.91667 10.0846C1.91667 10.2393 1.97812 10.3877 2.08752 10.4971C2.19692 10.6065 2.34529 10.668 2.5 10.668H11.25V11.8346H2.5C2.03587 11.8346 1.59075 11.6503 1.26256 11.3221C0.934375 10.9939 0.75 10.5488 0.75 10.0846V1.33464C0.75 1.02522 0.872916 0.72847 1.09171 0.509677C1.3105 0.290885 1.60725 0.167969 1.91667 0.167969H11.25V9.5013ZM8.33333 4.2513V3.08464H3.66667V4.2513H8.33333Z" fill="#252121"/>
</svg>