<svg width="48" height="37" viewBox="0 0 48 37" fill="none" xmlns="http://www.w3.org/2000/svg">
<path d="M5.03038 32.9322C2.32663 30.0605 0.875 26.8396 0.875 21.6185C0.875 12.431 7.32462 4.19637 16.7037 0.125L19.0479 3.74225C10.2935 8.47775 8.582 14.6229 7.8995 18.4974C9.30912 17.7676 11.1545 17.513 12.9631 17.681C17.6986 18.1194 21.4314 22.007 21.4314 26.8396C21.4314 29.2763 20.4634 31.6132 18.7404 33.3362C17.0174 35.0592 14.6806 36.0271 12.2439 36.0271C9.42725 36.0271 6.734 34.7409 5.03038 32.9322ZM31.2804 32.9322C28.5766 30.0605 27.125 26.8396 27.125 21.6185C27.125 12.431 33.5746 4.19637 42.9538 0.125L45.2979 3.74225C36.5435 8.47775 34.832 14.6229 34.1495 18.4974C35.5591 17.7676 37.4045 17.513 39.2131 17.681C43.9486 18.1194 47.6814 22.007 47.6814 26.8396C47.6814 29.2763 46.7134 31.6132 44.9904 33.3362C43.2674 35.0592 40.9305 36.0271 38.4939 36.0271C35.6772 36.0271 32.984 34.7409 31.2804 32.9322Z" fill="#e3b200"/>
</svg>