<svg width="14" height="14" viewBox="0 0 14 14" fill="none" xmlns="http://www.w3.org/2000/svg">
<path d="M12.9987 12H7.66536V2C7.66536 1.46957 7.87608 0.960859 8.25115 0.585786C8.62622 0.210714 9.13493 0 9.66536 0H12.9987C13.1755 0 13.3451 0.0702379 13.4701 0.195262C13.5951 0.320286 13.6654 0.489856 13.6654 0.666667V11.3333C13.6654 11.5101 13.5951 11.6797 13.4701 11.8047C13.3451 11.9298 13.1755 12 12.9987 12ZM6.33203 12H0.998698C0.821887 12 0.652318 11.9298 0.527293 11.8047C0.402269 11.6797 0.332031 11.5101 0.332031 11.3333V0.666667C0.332031 0.489856 0.402269 0.320286 0.527293 0.195262C0.652318 0.0702379 0.821887 0 0.998698 0H4.33203C4.86246 0 5.37117 0.210714 5.74624 0.585786C6.12132 0.960859 6.33203 1.46957 6.33203 2V12ZM6.33203 12H7.66536V13.3333H6.33203V12Z" fill="#252121"/>
</svg>