<svg width="16" height="16" viewBox="0 0 16 16" fill="none" xmlns="http://www.w3.org/2000/svg">
<path d="M2.95517 3.64232C1.90694 4.85203 1.33094 6.39965 1.33317 8.00033C1.33317 11.6823 4.31784 14.667 7.99984 14.667C11.6818 14.667 14.6665 11.6823 14.6665 8.00033C14.6665 4.31833 11.6818 1.33366 7.99984 1.33366C6.57584 1.33366 5.25584 1.78033 4.17317 2.54033L7.99984 4.66699L7.99984 2.66699C9.22903 2.66709 10.4205 3.09178 11.3726 3.86921C12.3247 4.64664 12.979 5.72909 13.2249 6.93344C13.4708 8.13779 13.2932 9.3901 12.722 10.4785C12.1508 11.567 11.2212 12.4247 10.0904 12.9066C8.95967 13.3886 7.69713 13.4651 6.51641 13.1233C5.33569 12.7815 4.30927 12.0424 3.6108 11.0309C2.91232 10.0195 2.58466 8.7978 2.68325 7.57256C2.78184 6.34733 3.30062 5.19376 4.15184 4.30699L2.95517 3.64232Z" fill="#252121"/>
</svg>