<svg width="18" height="16" viewBox="0 0 18 16" fill="none" xmlns="http://www.w3.org/2000/svg">
<path d="M1.5 6.75106H3.75V15.7511H1.5C1.30109 15.7511 1.11032 15.672 0.96967 15.5314C0.829018 15.3907 0.75 15.2 0.75 15.0011V7.50106C0.75 7.30215 0.829018 7.11138 0.96967 6.97073C1.11032 6.83008 1.30109 6.75106 1.5 6.75106ZM5.46975 5.78131L10.2697 0.98131C10.3335 0.917331 10.4183 0.878535 10.5084 0.872059C10.5985 0.865582 10.688 0.89186 10.7603 0.94606L11.4 1.42606C11.5777 1.55944 11.7119 1.74245 11.7857 1.952C11.8595 2.16155 11.8696 2.38827 11.8148 2.60356L10.95 6.00106H15.75C16.1478 6.00106 16.5294 6.1591 16.8107 6.4404C17.092 6.7217 17.25 7.10324 17.25 7.50106V9.07906C17.2502 9.27508 17.212 9.46924 17.1375 9.65056L14.8162 15.2868C14.7596 15.4242 14.6634 15.5417 14.5399 15.6244C14.4164 15.707 14.2711 15.7511 14.1225 15.7511H6C5.80109 15.7511 5.61032 15.672 5.46967 15.5314C5.32902 15.3907 5.25 15.2 5.25 15.0011V6.31156C5.25004 6.11266 5.32909 5.92193 5.46975 5.78131Z" fill="#252121"/>
</svg>