<svg width="28" height="28" viewBox="0 0 28 28" fill="none" xmlns="http://www.w3.org/2000/svg">
<circle cx="14" cy="14" r="14" fill="#C5D6D8" stroke="#C5D6D8"/>
<path transform="translate(8,9)" d="M11.9291 1.30002C11.4838 1.49701 11.0115 1.62638 10.528 1.68386C11.0377 1.37903 11.4191 0.899281 11.6013 0.334023C11.123 0.61869 10.5986 0.81819 10.052 0.926106C9.68483 0.533277 9.19819 0.272751 8.6677 0.185031C8.13722 0.0973099 7.59261 0.187309 7.11855 0.441037C6.64449 0.694765 6.26754 1.09801 6.0463 1.58807C5.82505 2.07813 5.77192 2.62756 5.89514 3.15094C4.92512 3.10232 3.97617 2.85025 3.1099 2.41108C2.24362 1.97191 1.47939 1.35547 0.866812 0.601773C0.649982 0.974202 0.536036 1.39757 0.536646 1.82852C0.536646 2.67436 0.967146 3.42161 1.62165 3.85911C1.23432 3.84691 0.855515 3.74231 0.516812 3.55402V3.58436C0.516929 4.14768 0.711861 4.69363 1.06856 5.12964C1.42525 5.56565 1.92176 5.86488 2.4739 5.97661C2.11434 6.07405 1.73732 6.08841 1.3714 6.01861C1.52707 6.50349 1.83048 6.92756 2.23916 7.23142C2.64783 7.53529 3.1413 7.70374 3.65048 7.71319C3.14443 8.11063 2.565 8.40443 1.94533 8.57779C1.32565 8.75115 0.677887 8.80067 0.0390625 8.72352C1.15422 9.44069 2.45237 9.82143 3.77823 9.82019C8.26581 9.82019 10.7199 6.10261 10.7199 2.87852C10.7199 2.77352 10.717 2.66736 10.7123 2.56352C11.19 2.21829 11.6022 1.79062 11.9297 1.30061L11.9291 1.30002Z" fill="#252121"/>
</svg>