<svg width="12" height="12" viewBox="0 0 12 12" fill="none" xmlns="http://www.w3.org/2000/svg">
<path d="M0 0.662C0 0.296667 0.296667 0 0.662 0H11.338C11.7033 0 12 0.296667 12 0.662V11.338C11.9998 11.5135 11.93 11.6818 11.8059 11.8059C11.6818 11.93 11.5135 11.9998 11.338 12H0.662C0.486481 11.9998 0.318201 11.93 0.19409 11.8059C0.0699794 11.6818 0.00017649 11.5135 0 11.338V0.662ZM5.08133 3.61C5.04121 3.58323 4.99458 3.56784 4.9464 3.56548C4.89823 3.56312 4.85032 3.57386 4.80776 3.59657C4.76521 3.61929 4.72962 3.65311 4.70477 3.69445C4.67993 3.73579 4.66676 3.7831 4.66667 3.83133V8.16867C4.66676 8.2169 4.67993 8.26421 4.70477 8.30555C4.72962 8.34689 4.76521 8.38071 4.80776 8.40343C4.85032 8.42614 4.89823 8.43688 4.9464 8.43452C4.99458 8.43216 5.04121 8.41677 5.08133 8.39L8.334 6.222C8.37058 6.19766 8.40057 6.16465 8.42132 6.12592C8.44207 6.08719 8.45293 6.04394 8.45293 6C8.45293 5.95606 8.44207 5.91281 8.42132 5.87408C8.40057 5.83535 8.37058 5.80234 8.334 5.778L5.08067 3.61H5.08133Z" fill="#252121"/>
</svg>