<svg width="28" height="28" viewBox="0 0 28 28" fill="none" xmlns="http://www.w3.org/2000/svg">
<circle cx="14" cy="14" r="14" fill="#C5D6D8"/>
<g clip-path="url(#clip0_418_8993)">
<path d="M8.17031 19.8346L8.95898 16.9366C8.43931 16.0458 8.16628 15.0326 8.16798 14.0013C8.16798 10.7796 10.7796 8.16797 14.0013 8.16797C17.2231 8.16797 19.8346 10.7796 19.8346 14.0013C19.8346 17.2231 17.2231 19.8346 14.0013 19.8346C12.9704 19.8363 11.9577 19.5635 11.0671 19.0442L8.17031 19.8346ZM11.8961 11.2643C11.8207 11.269 11.7471 11.2888 11.6796 11.3226C11.6164 11.3585 11.5586 11.4033 11.5081 11.4556C11.4381 11.5216 11.3985 11.5787 11.3559 11.6341C11.1403 11.9147 11.0243 12.2591 11.0263 12.613C11.0275 12.8988 11.1021 13.1771 11.2188 13.4372C11.4574 13.9634 11.85 14.5205 12.3686 15.0367C12.4934 15.161 12.6153 15.2858 12.7466 15.4019C13.3902 15.9686 14.1572 16.3772 14.9866 16.5954L15.3185 16.6461C15.4264 16.652 15.5343 16.6438 15.6428 16.6386C15.8127 16.6298 15.9786 16.5838 16.1287 16.5038C16.2256 16.4525 16.2711 16.4268 16.3521 16.3755C16.3521 16.3755 16.3772 16.3591 16.4251 16.323C16.5038 16.2646 16.5522 16.2232 16.6176 16.155C16.666 16.1048 16.708 16.0459 16.7401 15.9788C16.7856 15.8837 16.8311 15.7023 16.8497 15.5512C16.8637 15.4357 16.8596 15.3727 16.8579 15.3336C16.8556 15.2712 16.8036 15.2065 16.7471 15.1791L16.4076 15.0268C16.4076 15.0268 15.9001 14.8057 15.5903 14.6646C15.5577 14.6503 15.5227 14.6422 15.4871 14.6406C15.4471 14.6365 15.4068 14.641 15.3688 14.6538C15.3308 14.6666 15.2959 14.6874 15.2666 14.7147V14.7136C15.2636 14.7136 15.2246 14.7468 14.8028 15.2578C14.7786 15.2903 14.7453 15.3149 14.707 15.3284C14.6688 15.3419 14.6274 15.3437 14.5881 15.3336C14.5501 15.3235 14.5129 15.3106 14.4767 15.2951C14.4044 15.2648 14.3793 15.2531 14.3297 15.2316L14.3268 15.2304C13.9931 15.0847 13.6841 14.8879 13.411 14.6471C13.3375 14.5829 13.2692 14.5129 13.1992 14.4452C12.9697 14.2254 12.7697 13.9768 12.6042 13.7056L12.5698 13.6501C12.5451 13.6129 12.5251 13.5727 12.5103 13.5306C12.4881 13.4448 12.5459 13.376 12.5459 13.376C12.5459 13.376 12.6876 13.2208 12.7536 13.1368C12.8084 13.067 12.8597 12.9944 12.907 12.9192C12.9758 12.8084 12.9974 12.6946 12.9612 12.6066C12.7979 12.2076 12.6287 11.8103 12.4549 11.416C12.4205 11.3378 12.3184 11.2818 12.2256 11.2707C12.1941 11.2672 12.1626 11.2637 12.1311 11.2614C12.0528 11.2575 11.9743 11.2583 11.8961 11.2637V11.2643Z" fill="#252121"/>
</g>
<defs>
<clipPath id="clip0_418_8993">
<rect width="14" height="14" fill="white" transform="translate(7 7)"/>
</clipPath>
</defs>
</svg>