<svg width="24" height="24" viewBox="0 0 24 24" fill="none" xmlns="http://www.w3.org/2000/svg">
<circle cx="12" cy="12" r="11.5" fill="#252121" stroke="#252121"/>
<path d="M18 11.5C18.2761 11.5 18.5 11.7239 18.5 12C18.5 12.2761 18.2761 12.5 18 12.5V11.5ZM5.64645 12.3536C5.45118 12.1583 5.45118 11.8417 5.64645 11.6464L8.82843 8.46447C9.02369 8.2692 9.34027 8.2692 9.53553 8.46447C9.7308 8.65973 9.7308 8.97631 9.53553 9.17157L6.70711 12L9.53553 14.8284C9.7308 15.0237 9.7308 15.3403 9.53553 15.5355C9.34027 15.7308 9.02369 15.7308 8.82843 15.5355L5.64645 12.3536ZM18 12.5H6V11.5H18V12.5Z" fill="white"/>
</svg>